<?xml version="1.0" encoding="utf-8"?>
<!-- Generator: Adobe Illustrator 18.1.1, SVG Export Plug-In . SVG Version: 6.00 Build 0)  -->
<svg version="1.1" id="Layer_1" xmlns="http://www.w3.org/2000/svg" xmlns:xlink="http://www.w3.org/1999/xlink" x="0px" y="0px"
	 viewBox="0 0 66 30" enable-background="new 0 0 66 30" xml:space="preserve">
<g>
	<path fill="#FFDD71" d="M5.2,2.9c0-0.1,0.1-0.2,0.1-0.3c0,0,0,0,0,0C5.5,2,5.7,1.5,5.7,1c0,0,0,0,0,0l0-0.3c0-0.1,0-0.2,0-0.2
		c0,0,0,0,0,0c0,0,0-0.1,0-0.1c0,0,0,0,0,0c0,0,0,0,0,0c0,0-0.1,0-0.1,0C4.6,0.3,3.7,0.6,3,1.1C2.3,0.6,1.4,0.3,0.5,0.3
		c0,0-0.1,0-0.1,0c0,0,0,0,0,0c0,0,0,0,0,0c0,0,0,0.1,0,0.1c0,0,0,0,0,0c0,0.1,0,0.2,0,0.2l0,0.3c0,0,0,0,0,0c0,0.5,0.2,1.1,0.4,1.6
		c0,0,0,0,0,0c0,0.1,0.1,0.2,0.1,0.3c0,0.1,0.1,0.1,0.1,0.2c0,0,0,0.1,0.1,0.1C0.7,3.7,0.5,4.3,0.4,5C0.3,5.3,0.3,5.6,0.3,5.9
		c0,0,0,0.1,0,0.1c0,0,0.1,0,0.1,0c0,0,0,0,0,0C1.4,6,2.3,5.7,3,5.3C3.7,5.7,4.6,6,5.5,6c0,0,0,0,0,0c0,0,0.1,0,0.1,0
		c0,0,0-0.1,0-0.1c0-0.3,0-0.6-0.1-0.9C5.5,4.3,5.3,3.7,5,3.2c0,0,0-0.1,0.1-0.1C5.1,3,5.2,2.9,5.2,2.9z"/>
	<path fill="#FFDD71" d="M5.2,15c0-0.1,0.1-0.2,0.1-0.3c0,0,0,0,0,0c0.2-0.5,0.3-1,0.4-1.6c0,0,0,0,0,0l0-0.3c0-0.1,0-0.2,0-0.2
		c0,0,0,0,0,0c0,0,0-0.1,0-0.1c0,0,0,0,0,0c0,0,0,0,0,0c0,0-0.1,0-0.1,0c-0.9,0-1.8,0.3-2.5,0.8c-0.7-0.4-1.6-0.7-2.5-0.8
		c0,0-0.1,0-0.1,0c0,0,0,0,0,0c0,0,0,0,0,0c0,0,0,0.1,0,0.1c0,0,0,0,0,0c0,0.1,0,0.2,0,0.2l0,0.3c0,0,0,0,0,0c0,0.5,0.2,1.1,0.4,1.6
		c0,0,0,0,0,0c0,0.1,0.1,0.2,0.1,0.3c0,0.1,0.1,0.1,0.1,0.2c0,0,0,0.1,0.1,0.1c-0.3,0.6-0.5,1.2-0.6,1.8c-0.1,0.3-0.1,0.6-0.1,0.9
		c0,0,0,0.1,0,0.1c0,0,0.1,0,0.1,0c0,0,0,0,0,0c0.9,0,1.8-0.3,2.5-0.7c0.7,0.4,1.6,0.7,2.5,0.7c0,0,0,0,0,0c0,0,0.1,0,0.1,0
		c0,0,0-0.1,0-0.1c0-0.3,0-0.6-0.1-0.9c-0.1-0.6-0.3-1.2-0.6-1.8c0,0,0-0.1,0.1-0.1C5.1,15.2,5.2,15.1,5.2,15z"/>
	<path fill="#FFDD71" d="M5.2,26.6c0-0.1,0.1-0.2,0.1-0.3c0,0,0,0,0,0c0.2-0.5,0.3-1,0.4-1.6c0,0,0,0,0,0l0-0.3c0-0.1,0-0.2,0-0.2
		c0,0,0,0,0,0c0,0,0-0.1,0-0.1c0,0,0,0,0,0c0,0,0,0,0,0c0,0-0.1,0-0.1,0c-0.9,0-1.8,0.3-2.5,0.8C2.3,24.3,1.4,24,0.5,24
		c0,0-0.1,0-0.1,0c0,0,0,0,0,0c0,0,0,0,0,0c0,0,0,0.1,0,0.1c0,0,0,0,0,0c0,0.1,0,0.2,0,0.2l0,0.3c0,0,0,0,0,0c0,0.5,0.2,1.1,0.4,1.6
		c0,0,0,0,0,0c0,0.1,0.1,0.2,0.1,0.3c0,0.1,0.1,0.1,0.1,0.2c0,0,0,0.1,0.1,0.1c-0.3,0.6-0.5,1.2-0.6,1.8c-0.1,0.3-0.1,0.6-0.1,0.9
		c0,0,0,0.1,0,0.1c0,0,0.1,0,0.1,0c0,0,0,0,0,0c0.9,0,1.8-0.3,2.5-0.7c0.7,0.4,1.6,0.7,2.5,0.7c0,0,0,0,0,0c0,0,0.1,0,0.1,0
		c0,0,0-0.1,0-0.1c0-0.3,0-0.6-0.1-0.9C5.5,28,5.3,27.4,5,26.9c0,0,0-0.1,0.1-0.1C5.1,26.7,5.2,26.6,5.2,26.6z"/>
	<path fill="#FFDD71" d="M17.2,2.9c0-0.1,0.1-0.2,0.1-0.3c0,0,0,0,0,0c0.2-0.5,0.3-1,0.4-1.6c0,0,0,0,0,0l0-0.3c0-0.1,0-0.2,0-0.2
		c0,0,0,0,0,0c0,0,0-0.1,0-0.1c0,0,0,0,0,0c0,0,0,0,0,0c0,0-0.1,0-0.1,0c-0.9,0-1.8,0.3-2.5,0.8c-0.7-0.4-1.6-0.7-2.5-0.8
		c0,0-0.1,0-0.1,0c0,0,0,0,0,0c0,0,0,0,0,0c0,0,0,0.1,0,0.1c0,0,0,0,0,0c0,0.1,0,0.2,0,0.2l0,0.3c0,0,0,0,0,0c0,0.5,0.2,1.1,0.4,1.6
		c0,0,0,0,0,0c0,0.1,0.1,0.2,0.1,0.3c0,0.1,0.1,0.1,0.1,0.2c0,0,0,0.1,0.1,0.1c-0.3,0.6-0.5,1.2-0.6,1.8c-0.1,0.3-0.1,0.6-0.1,0.9
		c0,0,0,0.1,0,0.1c0,0,0.1,0,0.1,0c0,0,0,0,0,0c0.9,0,1.8-0.3,2.5-0.7C15.7,5.7,16.6,6,17.5,6c0,0,0,0,0,0c0,0,0.1,0,0.1,0
		c0,0,0-0.1,0-0.1c0-0.3,0-0.6-0.1-0.9c-0.1-0.6-0.3-1.2-0.6-1.8c0,0,0-0.1,0.1-0.1C17.1,3,17.2,2.9,17.2,2.9z"/>
	<path fill="#FFDD71" d="M17.2,15c0-0.1,0.1-0.2,0.1-0.3c0,0,0,0,0,0c0.2-0.5,0.3-1,0.4-1.6c0,0,0,0,0,0l0-0.3c0-0.1,0-0.2,0-0.2
		c0,0,0,0,0,0c0,0,0-0.1,0-0.1c0,0,0,0,0,0c0,0,0,0,0,0c0,0-0.1,0-0.1,0c-0.9,0-1.8,0.3-2.5,0.8c-0.7-0.4-1.6-0.7-2.5-0.8
		c0,0-0.1,0-0.1,0c0,0,0,0,0,0c0,0,0,0,0,0c0,0,0,0.1,0,0.1c0,0,0,0,0,0c0,0.1,0,0.2,0,0.2l0,0.3c0,0,0,0,0,0c0,0.5,0.2,1.1,0.4,1.6
		c0,0,0,0,0,0c0,0.1,0.1,0.2,0.1,0.3c0,0.1,0.1,0.1,0.1,0.2c0,0,0,0.1,0.1,0.1c-0.3,0.6-0.5,1.2-0.6,1.8c-0.1,0.3-0.1,0.6-0.1,0.9
		c0,0,0,0.1,0,0.1c0,0,0.1,0,0.1,0c0,0,0,0,0,0c0.9,0,1.8-0.3,2.5-0.7c0.7,0.4,1.6,0.7,2.5,0.7c0,0,0,0,0,0c0,0,0.1,0,0.1,0
		c0,0,0-0.1,0-0.1c0-0.3,0-0.6-0.1-0.9c-0.1-0.6-0.3-1.2-0.6-1.8c0,0,0-0.1,0.1-0.1C17.1,15.2,17.2,15.1,17.2,15z"/>
	<path fill="#FFDD71" d="M17.2,26.6c0-0.1,0.1-0.2,0.1-0.3c0,0,0,0,0,0c0.2-0.5,0.3-1,0.4-1.6c0,0,0,0,0,0l0-0.3c0-0.1,0-0.2,0-0.2
		c0,0,0,0,0,0c0,0,0-0.1,0-0.1c0,0,0,0,0,0c0,0,0,0,0,0c0,0-0.1,0-0.1,0c-0.9,0-1.8,0.3-2.5,0.8c-0.7-0.4-1.6-0.7-2.5-0.8
		c0,0-0.1,0-0.1,0c0,0,0,0,0,0c0,0,0,0,0,0c0,0,0,0.1,0,0.1c0,0,0,0,0,0c0,0.1,0,0.2,0,0.2l0,0.3c0,0,0,0,0,0c0,0.5,0.2,1.1,0.4,1.6
		c0,0,0,0,0,0c0,0.1,0.1,0.2,0.1,0.3c0,0.1,0.1,0.1,0.1,0.2c0,0,0,0.1,0.1,0.1c-0.3,0.6-0.5,1.2-0.6,1.8c-0.1,0.3-0.1,0.6-0.1,0.9
		c0,0,0,0.1,0,0.1c0,0,0.1,0,0.1,0c0,0,0,0,0,0c0.9,0,1.8-0.3,2.5-0.7c0.7,0.4,1.6,0.7,2.5,0.7c0,0,0,0,0,0c0,0,0.1,0,0.1,0
		c0,0,0-0.1,0-0.1c0-0.3,0-0.6-0.1-0.9c-0.1-0.6-0.3-1.2-0.6-1.8c0,0,0-0.1,0.1-0.1C17.1,26.7,17.2,26.6,17.2,26.6z"/>
	<path fill="#FFDD71" d="M29.2,2.9c0-0.1,0.1-0.2,0.1-0.3c0,0,0,0,0,0c0.2-0.5,0.3-1,0.4-1.6c0,0,0,0,0,0l0-0.3c0-0.1,0-0.2,0-0.2
		c0,0,0,0,0,0c0,0,0-0.1,0-0.1c0,0,0,0,0,0c0,0,0,0,0,0c0,0-0.1,0-0.1,0c-0.9,0-1.8,0.3-2.5,0.8c-0.7-0.4-1.6-0.7-2.5-0.8
		c0,0-0.1,0-0.1,0c0,0,0,0,0,0c0,0,0,0,0,0c0,0,0,0.1,0,0.1c0,0,0,0,0,0c0,0.1,0,0.2,0,0.2l0,0.3c0,0,0,0,0,0c0,0.5,0.2,1.1,0.4,1.6
		c0,0,0,0,0,0c0,0.1,0.1,0.2,0.1,0.3c0,0.1,0.1,0.1,0.1,0.2c0,0,0,0.1,0.1,0.1c-0.3,0.6-0.5,1.2-0.6,1.8c-0.1,0.3-0.1,0.6-0.1,0.9
		c0,0,0,0.1,0,0.1c0,0,0.1,0,0.1,0c0,0,0,0,0,0c0.9,0,1.8-0.3,2.5-0.7C27.7,5.7,28.6,6,29.5,6c0,0,0,0,0,0c0,0,0.1,0,0.1,0
		c0,0,0-0.1,0-0.1c0-0.3,0-0.6-0.1-0.9c-0.1-0.6-0.3-1.2-0.6-1.8c0,0,0-0.1,0.1-0.1C29.1,3,29.2,2.9,29.2,2.9z"/>
	<path fill="#FFDD71" d="M29.2,15c0-0.1,0.1-0.2,0.1-0.3c0,0,0,0,0,0c0.2-0.5,0.3-1,0.4-1.6c0,0,0,0,0,0l0-0.3c0-0.1,0-0.2,0-0.2
		c0,0,0,0,0,0c0,0,0-0.1,0-0.1c0,0,0,0,0,0c0,0,0,0,0,0c0,0-0.1,0-0.1,0c-0.9,0-1.8,0.3-2.5,0.8c-0.7-0.4-1.6-0.7-2.5-0.8
		c0,0-0.1,0-0.1,0c0,0,0,0,0,0c0,0,0,0,0,0c0,0,0,0.1,0,0.1c0,0,0,0,0,0c0,0.1,0,0.2,0,0.2l0,0.3c0,0,0,0,0,0c0,0.5,0.2,1.1,0.4,1.6
		c0,0,0,0,0,0c0,0.1,0.1,0.2,0.1,0.3c0,0.1,0.1,0.1,0.1,0.2c0,0,0,0.1,0.1,0.1c-0.3,0.6-0.5,1.2-0.6,1.8c-0.1,0.3-0.1,0.6-0.1,0.9
		c0,0,0,0.1,0,0.1c0,0,0.1,0,0.1,0c0,0,0,0,0,0c0.9,0,1.8-0.3,2.5-0.7c0.7,0.4,1.6,0.7,2.5,0.7c0,0,0,0,0,0c0,0,0.1,0,0.1,0
		c0,0,0-0.1,0-0.1c0-0.3,0-0.6-0.1-0.9c-0.1-0.6-0.3-1.2-0.6-1.8c0,0,0-0.1,0.1-0.1C29.1,15.2,29.2,15.1,29.2,15z"/>
	<path fill="#FFDD71" d="M29.2,26.6c0-0.1,0.1-0.2,0.1-0.3c0,0,0,0,0,0c0.2-0.5,0.3-1,0.4-1.6c0,0,0,0,0,0l0-0.3c0-0.1,0-0.2,0-0.2
		c0,0,0,0,0,0c0,0,0-0.1,0-0.1c0,0,0,0,0,0c0,0,0,0,0,0c0,0-0.1,0-0.1,0c-0.9,0-1.8,0.3-2.5,0.8c-0.7-0.4-1.6-0.7-2.5-0.8
		c0,0-0.1,0-0.1,0c0,0,0,0,0,0c0,0,0,0,0,0c0,0,0,0.1,0,0.1c0,0,0,0,0,0c0,0.1,0,0.2,0,0.2l0,0.3c0,0,0,0,0,0c0,0.5,0.2,1.1,0.4,1.6
		c0,0,0,0,0,0c0,0.1,0.1,0.2,0.1,0.3c0,0.1,0.1,0.1,0.1,0.2c0,0,0,0.1,0.1,0.1c-0.3,0.6-0.5,1.2-0.6,1.8c-0.1,0.3-0.1,0.6-0.1,0.9
		c0,0,0,0.1,0,0.1c0,0,0.1,0,0.1,0c0,0,0,0,0,0c0.9,0,1.8-0.3,2.5-0.7c0.7,0.4,1.6,0.7,2.5,0.7c0,0,0,0,0,0c0,0,0.1,0,0.1,0
		c0,0,0-0.1,0-0.1c0-0.3,0-0.6-0.1-0.9c-0.1-0.6-0.3-1.2-0.6-1.8c0,0,0-0.1,0.1-0.1C29.1,26.7,29.2,26.6,29.2,26.6z"/>
	<path fill="#FFDD71" d="M41.2,2.9c0-0.1,0.1-0.2,0.1-0.3c0,0,0,0,0,0c0.2-0.5,0.3-1,0.4-1.6c0,0,0,0,0,0l0-0.3c0-0.1,0-0.2,0-0.2
		c0,0,0,0,0,0c0,0,0-0.1,0-0.1c0,0,0,0,0,0c0,0,0,0,0,0c0,0-0.1,0-0.1,0c-0.9,0-1.8,0.3-2.5,0.8c-0.7-0.4-1.6-0.7-2.5-0.8
		c0,0-0.1,0-0.1,0c0,0,0,0,0,0c0,0,0,0,0,0c0,0,0,0.1,0,0.1c0,0,0,0,0,0c0,0.1,0,0.2,0,0.2l0,0.3c0,0,0,0,0,0c0,0.5,0.2,1.1,0.4,1.6
		c0,0,0,0,0,0c0,0.1,0.1,0.2,0.1,0.3c0,0.1,0.1,0.1,0.1,0.2c0,0,0,0.1,0.1,0.1c-0.3,0.6-0.5,1.2-0.6,1.8c-0.1,0.3-0.1,0.6-0.1,0.9
		c0,0,0,0.1,0,0.1c0,0,0.1,0,0.1,0c0,0,0,0,0,0c0.9,0,1.8-0.3,2.5-0.7C39.7,5.7,40.6,6,41.5,6c0,0,0,0,0,0c0,0,0.1,0,0.1,0
		c0,0,0-0.1,0-0.1c0-0.3,0-0.6-0.1-0.9c-0.1-0.6-0.3-1.2-0.6-1.8c0,0,0-0.1,0.1-0.1C41.1,3,41.2,2.9,41.2,2.9z"/>
	<path fill="#FFDD71" d="M41.2,15c0-0.1,0.1-0.2,0.1-0.3c0,0,0,0,0,0c0.2-0.5,0.3-1,0.4-1.6c0,0,0,0,0,0l0-0.3c0-0.1,0-0.2,0-0.2
		c0,0,0,0,0,0c0,0,0-0.1,0-0.1c0,0,0,0,0,0c0,0,0,0,0,0c0,0-0.1,0-0.1,0c-0.9,0-1.8,0.3-2.5,0.8c-0.7-0.4-1.6-0.7-2.5-0.8
		c0,0-0.1,0-0.1,0c0,0,0,0,0,0c0,0,0,0,0,0c0,0,0,0.1,0,0.1c0,0,0,0,0,0c0,0.1,0,0.2,0,0.2l0,0.3c0,0,0,0,0,0c0,0.5,0.2,1.1,0.4,1.6
		c0,0,0,0,0,0c0,0.1,0.1,0.2,0.1,0.3c0,0.1,0.1,0.1,0.1,0.2c0,0,0,0.1,0.1,0.1c-0.3,0.6-0.5,1.2-0.6,1.8c-0.1,0.3-0.1,0.6-0.1,0.9
		c0,0,0,0.1,0,0.1c0,0,0.1,0,0.1,0c0,0,0,0,0,0c0.9,0,1.8-0.3,2.5-0.7c0.7,0.4,1.6,0.7,2.5,0.7c0,0,0,0,0,0c0,0,0.1,0,0.1,0
		c0,0,0-0.1,0-0.1c0-0.3,0-0.6-0.1-0.9c-0.1-0.6-0.3-1.2-0.6-1.8c0,0,0-0.1,0.1-0.1C41.1,15.2,41.2,15.1,41.2,15z"/>
	<path fill="#FFDD71" d="M41.2,26.6c0-0.1,0.1-0.2,0.1-0.3c0,0,0,0,0,0c0.2-0.5,0.3-1,0.4-1.6c0,0,0,0,0,0l0-0.3c0-0.1,0-0.2,0-0.2
		c0,0,0,0,0,0c0,0,0-0.1,0-0.1c0,0,0,0,0,0c0,0,0,0,0,0c0,0-0.1,0-0.1,0c-0.9,0-1.8,0.3-2.5,0.8c-0.7-0.4-1.6-0.7-2.5-0.8
		c0,0-0.1,0-0.1,0c0,0,0,0,0,0c0,0,0,0,0,0c0,0,0,0.1,0,0.1c0,0,0,0,0,0c0,0.1,0,0.2,0,0.2l0,0.3c0,0,0,0,0,0c0,0.5,0.2,1.1,0.4,1.6
		c0,0,0,0,0,0c0,0.1,0.1,0.2,0.1,0.3c0,0.1,0.1,0.1,0.1,0.2c0,0,0,0.1,0.1,0.1c-0.3,0.6-0.5,1.2-0.6,1.8c-0.1,0.3-0.1,0.6-0.1,0.9
		c0,0,0,0.1,0,0.1c0,0,0.1,0,0.1,0c0,0,0,0,0,0c0.9,0,1.8-0.3,2.5-0.7c0.7,0.4,1.6,0.7,2.5,0.7c0,0,0,0,0,0c0,0,0.1,0,0.1,0
		c0,0,0-0.1,0-0.1c0-0.3,0-0.6-0.1-0.9c-0.1-0.6-0.3-1.2-0.6-1.8c0,0,0-0.1,0.1-0.1C41.1,26.7,41.2,26.6,41.2,26.6z"/>
	<path fill="#FFDD71" d="M53.2,2.9c0-0.1,0.1-0.2,0.1-0.3c0,0,0,0,0,0c0.2-0.5,0.3-1,0.4-1.6c0,0,0,0,0,0l0-0.3c0-0.1,0-0.2,0-0.2
		c0,0,0,0,0,0c0,0,0-0.1,0-0.1c0,0,0,0,0,0c0,0,0,0,0,0c0,0-0.1,0-0.1,0c-0.9,0-1.8,0.3-2.5,0.8c-0.7-0.4-1.6-0.7-2.5-0.8
		c0,0-0.1,0-0.1,0c0,0,0,0,0,0c0,0,0,0,0,0c0,0,0,0.1,0,0.1c0,0,0,0,0,0c0,0.1,0,0.2,0,0.2l0,0.3c0,0,0,0,0,0c0,0.5,0.2,1.1,0.4,1.6
		c0,0,0,0,0,0c0,0.1,0.1,0.2,0.1,0.3c0,0.1,0.1,0.1,0.1,0.2c0,0,0,0.1,0.1,0.1c-0.3,0.6-0.5,1.2-0.6,1.8c-0.1,0.3-0.1,0.6-0.1,0.9
		c0,0,0,0.1,0,0.1c0,0,0.1,0,0.1,0c0,0,0,0,0,0c0.9,0,1.8-0.3,2.5-0.7C51.7,5.7,52.6,6,53.5,6c0,0,0,0,0,0c0,0,0.1,0,0.1,0
		c0,0,0-0.1,0-0.1c0-0.3,0-0.6-0.1-0.9c-0.1-0.6-0.3-1.2-0.6-1.8c0,0,0-0.1,0.1-0.1C53.1,3,53.2,2.9,53.2,2.9z"/>
	<path fill="#FFDD71" d="M53.2,15c0-0.1,0.1-0.2,0.1-0.3c0,0,0,0,0,0c0.2-0.5,0.3-1,0.4-1.6c0,0,0,0,0,0l0-0.3c0-0.1,0-0.2,0-0.2
		c0,0,0,0,0,0c0,0,0-0.1,0-0.1c0,0,0,0,0,0c0,0,0,0,0,0c0,0-0.1,0-0.1,0c-0.9,0-1.8,0.3-2.5,0.8c-0.7-0.4-1.6-0.7-2.5-0.8
		c0,0-0.1,0-0.1,0c0,0,0,0,0,0c0,0,0,0,0,0c0,0,0,0.1,0,0.1c0,0,0,0,0,0c0,0.1,0,0.2,0,0.2l0,0.3c0,0,0,0,0,0c0,0.5,0.2,1.1,0.4,1.6
		c0,0,0,0,0,0c0,0.1,0.1,0.2,0.1,0.3c0,0.1,0.1,0.1,0.1,0.2c0,0,0,0.1,0.1,0.1c-0.3,0.6-0.5,1.2-0.6,1.8c-0.1,0.3-0.1,0.6-0.1,0.9
		c0,0,0,0.1,0,0.1c0,0,0.1,0,0.1,0c0,0,0,0,0,0c0.9,0,1.8-0.3,2.5-0.7c0.7,0.4,1.6,0.7,2.5,0.7c0,0,0,0,0,0c0,0,0.1,0,0.1,0
		c0,0,0-0.1,0-0.1c0-0.3,0-0.6-0.1-0.9c-0.1-0.6-0.3-1.2-0.6-1.8c0,0,0-0.1,0.1-0.1C53.1,15.2,53.2,15.1,53.2,15z"/>
	<path fill="#FFDD71" d="M53.2,26.6c0-0.1,0.1-0.2,0.1-0.3c0,0,0,0,0,0c0.2-0.5,0.3-1,0.4-1.6c0,0,0,0,0,0l0-0.3c0-0.1,0-0.2,0-0.2
		c0,0,0,0,0,0c0,0,0-0.1,0-0.1c0,0,0,0,0,0c0,0,0,0,0,0c0,0-0.1,0-0.1,0c-0.9,0-1.8,0.3-2.5,0.8c-0.7-0.4-1.6-0.7-2.5-0.8
		c0,0-0.1,0-0.1,0c0,0,0,0,0,0c0,0,0,0,0,0c0,0,0,0.1,0,0.1c0,0,0,0,0,0c0,0.1,0,0.2,0,0.2l0,0.3c0,0,0,0,0,0c0,0.5,0.2,1.1,0.4,1.6
		c0,0,0,0,0,0c0,0.1,0.1,0.2,0.1,0.3c0,0.1,0.1,0.1,0.1,0.2c0,0,0,0.1,0.1,0.1c-0.3,0.6-0.5,1.2-0.6,1.8c-0.1,0.3-0.1,0.6-0.1,0.9
		c0,0,0,0.1,0,0.1c0,0,0.1,0,0.1,0c0,0,0,0,0,0c0.9,0,1.8-0.3,2.5-0.7c0.7,0.4,1.6,0.7,2.5,0.7c0,0,0,0,0,0c0,0,0.1,0,0.1,0
		c0,0,0-0.1,0-0.1c0-0.3,0-0.6-0.1-0.9c-0.1-0.6-0.3-1.2-0.6-1.8c0,0,0-0.1,0.1-0.1C53.1,26.7,53.2,26.6,53.2,26.6z"/>
	<path fill="#FFDD71" d="M65.2,2.9c0-0.1,0.1-0.2,0.1-0.3c0,0,0,0,0,0c0.2-0.5,0.3-1,0.4-1.6c0,0,0,0,0,0l0-0.3c0-0.1,0-0.2,0-0.2
		c0,0,0,0,0,0c0,0,0-0.1,0-0.1c0,0,0,0,0,0c0,0,0,0,0,0c0,0-0.1,0-0.1,0c-0.9,0-1.8,0.3-2.5,0.8c-0.7-0.4-1.6-0.7-2.5-0.8
		c0,0-0.1,0-0.1,0c0,0,0,0,0,0c0,0,0,0,0,0c0,0,0,0.1,0,0.1c0,0,0,0,0,0c0,0.1,0,0.2,0,0.2l0,0.3c0,0,0,0,0,0c0,0.5,0.2,1.1,0.4,1.6
		c0,0,0,0,0,0c0,0.1,0.1,0.2,0.1,0.3c0,0.1,0.1,0.1,0.1,0.2c0,0,0,0.1,0.1,0.1c-0.3,0.6-0.5,1.2-0.6,1.8c-0.1,0.3-0.1,0.6-0.1,0.9
		c0,0,0,0.1,0,0.1c0,0,0.1,0,0.1,0c0,0,0,0,0,0c0.9,0,1.8-0.3,2.5-0.7C63.7,5.7,64.6,6,65.5,6c0,0,0,0,0,0c0,0,0.1,0,0.1,0
		c0,0,0-0.1,0-0.1c0-0.3,0-0.6-0.1-0.9c-0.1-0.6-0.3-1.2-0.6-1.8c0,0,0-0.1,0.1-0.1C65.1,3,65.2,2.9,65.2,2.9z"/>
	<path fill="#FFDD71" d="M65.2,15c0-0.1,0.1-0.2,0.1-0.3c0,0,0,0,0,0c0.2-0.5,0.3-1,0.4-1.6c0,0,0,0,0,0l0-0.3c0-0.1,0-0.2,0-0.2
		c0,0,0,0,0,0c0,0,0-0.1,0-0.1c0,0,0,0,0,0c0,0,0,0,0,0c0,0-0.1,0-0.1,0c-0.9,0-1.8,0.3-2.5,0.8c-0.7-0.4-1.6-0.7-2.5-0.8
		c0,0-0.1,0-0.1,0c0,0,0,0,0,0c0,0,0,0,0,0c0,0,0,0.1,0,0.1c0,0,0,0,0,0c0,0.1,0,0.2,0,0.2l0,0.3c0,0,0,0,0,0c0,0.5,0.2,1.1,0.4,1.6
		c0,0,0,0,0,0c0,0.1,0.1,0.2,0.1,0.3c0,0.1,0.1,0.1,0.1,0.2c0,0,0,0.1,0.1,0.1c-0.3,0.6-0.5,1.2-0.6,1.8c-0.1,0.3-0.1,0.6-0.1,0.9
		c0,0,0,0.1,0,0.1c0,0,0.1,0,0.1,0c0,0,0,0,0,0c0.9,0,1.8-0.3,2.5-0.7c0.7,0.4,1.6,0.7,2.5,0.7c0,0,0,0,0,0c0,0,0.1,0,0.1,0
		c0,0,0-0.1,0-0.1c0-0.3,0-0.6-0.1-0.9c-0.1-0.6-0.3-1.2-0.6-1.8c0,0,0-0.1,0.1-0.1C65.1,15.2,65.2,15.1,65.2,15z"/>
	<path fill="#FFDD71" d="M65.2,26.6c0-0.1,0.1-0.2,0.1-0.3c0,0,0,0,0,0c0.2-0.5,0.3-1,0.4-1.6c0,0,0,0,0,0l0-0.3c0-0.1,0-0.2,0-0.2
		c0,0,0,0,0,0c0,0,0-0.1,0-0.1c0,0,0,0,0,0c0,0,0,0,0,0c0,0-0.1,0-0.1,0c-0.9,0-1.8,0.3-2.5,0.8c-0.7-0.4-1.6-0.7-2.5-0.8
		c0,0-0.1,0-0.1,0c0,0,0,0,0,0c0,0,0,0,0,0c0,0,0,0.1,0,0.1c0,0,0,0,0,0c0,0.1,0,0.2,0,0.2l0,0.3c0,0,0,0,0,0c0,0.5,0.2,1.1,0.4,1.6
		c0,0,0,0,0,0c0,0.1,0.1,0.2,0.1,0.3c0,0.1,0.1,0.1,0.1,0.2c0,0,0,0.1,0.1,0.1c-0.3,0.6-0.5,1.2-0.6,1.8c-0.1,0.3-0.1,0.6-0.1,0.9
		c0,0,0,0.1,0,0.1c0,0,0.1,0,0.1,0c0,0,0,0,0,0c0.9,0,1.8-0.3,2.5-0.7c0.7,0.4,1.6,0.7,2.5,0.7c0,0,0,0,0,0c0,0,0.1,0,0.1,0
		c0,0,0-0.1,0-0.1c0-0.3,0-0.6-0.1-0.9c-0.1-0.6-0.3-1.2-0.6-1.8c0,0,0-0.1,0.1-0.1C65.1,26.7,65.2,26.6,65.2,26.6z"/>
</g>
</svg>
