<?xml version="1.0" encoding="utf-8"?>
<!-- Generator: Adobe Illustrator 18.1.1, SVG Export Plug-In . SVG Version: 6.00 Build 0)  -->
<svg version="1.1" id="Layer_1" xmlns="http://www.w3.org/2000/svg" xmlns:xlink="http://www.w3.org/1999/xlink" x="0px" y="0px"
	 viewBox="0 0 186 32" enable-background="new 0 0 186 32" xml:space="preserve">
<text transform="matrix(1 0 0 1 31.3974 24.7495)" fill="#FFDD71" font-family="'Bahnschrift'" font-size="26.4733">LibertaGroup</text>
<path fill="#FFDD71" d="M23,13.4c0.2-0.5,0.4-1,0.6-1.5c0,0,0-0.1,0-0.1c0.9-2.3,1.5-4.8,1.6-7.3c0,0,0,0,0-0.1l0-1.2
	c0-0.4,0-0.7,0-1.1c0,0,0,0,0,0c0-0.2-0.1-0.4-0.2-0.5c0,0,0,0,0,0c0,0,0,0,0,0c-0.1-0.1-0.3-0.2-0.5-0.2C20.3,1.7,16.4,3,12.9,5
	C9.5,3,5.6,1.7,1.3,1.5C1.2,1.5,1,1.6,0.8,1.7c0,0,0,0,0,0c0,0,0,0,0,0C0.7,1.9,0.6,2,0.6,2.2c0,0,0,0,0,0c0,0.4,0,0.7,0,1.1l0,1.2
	c0,0,0,0,0,0.1c0.2,2.5,0.7,5,1.6,7.3c0,0,0,0.1,0,0.1c0.2,0.5,0.4,1,0.6,1.5c0.1,0.3,0.3,0.6,0.4,0.9c0.1,0.2,0.2,0.4,0.3,0.5
	c-1.3,2.5-2.3,5.3-2.6,8.2c-0.3,1.4-0.4,2.8-0.4,4.1c0,0.2,0.1,0.4,0.2,0.5C0.9,27.9,1.1,28,1.3,28c0,0,0,0,0,0
	c4.3-0.2,8.2-1.4,11.6-3.4c3.4,2,7.4,3.2,11.6,3.4c0,0,0,0,0,0c0.2,0,0.4-0.1,0.5-0.2c0.1-0.1,0.2-0.3,0.2-0.5
	c0-1.4-0.1-2.8-0.4-4.1c-0.4-2.9-1.3-5.7-2.6-8.2c0.1-0.2,0.2-0.4,0.3-0.5C22.7,14.1,22.9,13.7,23,13.4z"/>
</svg>
